HIERARCHY
ROOT Hip
{
	OFFSET 0.000000 -1.816777 0.247491
	CHANNELS 6 Xposition Yposition Zposition Xrotation Yrotation Zrotation
	JOINT LowerSpine
	{
		OFFSET 0.000000 0.154692 0.259873
		CHANNELS 6 Xposition Yposition Zposition Xrotation Yrotation Zrotation
		JOINT MiddleSpine
		{
			OFFSET -0.000000 -0.011153 0.237154
			CHANNELS 3 Xrotation Yrotation Zrotation
			JOINT Chest
			{
				OFFSET -0.000000 0.058786 0.293448
				CHANNELS 3 Xrotation Yrotation Zrotation
				JOINT Neck
				{
					OFFSET -0.000000 0.012376 0.661279
					CHANNELS 6 Xposition Yposition Zposition Xrotation Yrotation Zrotation
					JOINT Head
					{
						OFFSET -0.000003 -0.101573 0.373433
						CHANNELS 3 Xrotation Yrotation Zrotation
						End Site
						{
							OFFSET 0.000000 -0.001601 0.053629
						}
					}
				}
				JOINT LClavicle
				{
					OFFSET 0.060085 -0.196776 0.638168
					CHANNELS 6 Xposition Yposition Zposition Xrotation Yrotation Zrotation
					JOINT LShoulder
					{
						OFFSET 0.351027 0.148115 0.091534
						CHANNELS 3 Xrotation Yrotation Zrotation
						JOINT LForearm
						{
							OFFSET 0.828501 0.007179 -0.002938
							CHANNELS 3 Xrotation Yrotation Zrotation
							JOINT LHand
							{
								OFFSET 0.691144 0.004141 0.002004
								CHANNELS 3 Xrotation Yrotation Zrotation
								JOINT LFinger1
								{
									OFFSET 0.267868 -0.074399 0.023427
									CHANNELS 6 Xposition Yposition Zposition Xrotation Yrotation Zrotation
									JOINT LFinger11
									{
										OFFSET 0.100195 -0.017654 -0.024433
										CHANNELS 3 Xrotation Yrotation Zrotation
										JOINT LFinger12
										{
											OFFSET 0.068401 -0.012057 -0.016682
											CHANNELS 3 Xrotation Yrotation Zrotation
											End Site
											{
												OFFSET 0.050801 -0.008241 -0.015164
											}
										}
									}
								}
								JOINT LFinger2
								{
									OFFSET 0.271866 -0.006477 0.027053
									CHANNELS 6 Xposition Yposition Zposition Xrotation Yrotation Zrotation
									JOINT LFinger21
									{
										OFFSET 0.123886 0.000731 0.000344
										CHANNELS 3 Xrotation Yrotation Zrotation
										JOINT LFinger22
										{
											OFFSET 0.068670 0.000417 0.000210
											CHANNELS 3 Xrotation Yrotation Zrotation
											End Site
											{
												OFFSET 0.053519 -0.000073 -0.003781
											}
										}
									}
								}
								JOINT LFinger3
								{
									OFFSET 0.257651 0.060956 0.018054
									CHANNELS 6 Xposition Yposition Zposition Xrotation Yrotation Zrotation
									JOINT LFinger31
									{
										OFFSET 0.112414 0.007039 -0.005693
										CHANNELS 3 Xrotation Yrotation Zrotation
										JOINT LFinger32
										{
											OFFSET 0.064058 0.004024 -0.003223
											CHANNELS 3 Xrotation Yrotation Zrotation
											End Site
											{
												OFFSET 0.053193 0.002514 -0.006540
											}
										}
									}
								}
								JOINT LFinger4
								{
									OFFSET 0.239089 0.105269 -0.018169
									CHANNELS 6 Xposition Yposition Zposition Xrotation Yrotation Zrotation
									JOINT LFinger41
									{
										OFFSET 0.069146 0.019088 -0.014420
										CHANNELS 3 Xrotation Yrotation Zrotation
										JOINT LFinger42
										{
											OFFSET 0.050705 0.014006 -0.010559
											CHANNELS 3 Xrotation Yrotation Zrotation
											End Site
											{
												OFFSET 0.050514 0.011591 -0.013879
											}
										}
									}
								}
								JOINT LFinger0
								{
									OFFSET 0.055412 -0.042009 -0.041941
									CHANNELS 6 Xposition Yposition Zposition Xrotation Yrotation Zrotation
									JOINT LFinger01
									{
										OFFSET 0.103169 -0.077784 -0.033880
										CHANNELS 3 Xrotation Yrotation Zrotation
										JOINT LFinger02
										{
											OFFSET 0.067934 -0.048944 -0.024309
											CHANNELS 3 Xrotation Yrotation Zrotation
											End Site
											{
												OFFSET 0.042584 -0.029159 -0.014660
											}
										}
									}
								}
							}
						}
					}
				}
				JOINT RClavicle
				{
					OFFSET -0.060085 -0.196776 0.638168
					CHANNELS 6 Xposition Yposition Zposition Xrotation Yrotation Zrotation
					JOINT RShoulder
					{
						OFFSET -0.351089 0.148140 0.091551
						CHANNELS 3 Xrotation Yrotation Zrotation
						JOINT RForearm
						{
							OFFSET -0.828500 0.007180 -0.002939
							CHANNELS 3 Xrotation Yrotation Zrotation
							JOINT RHand
							{
								OFFSET -0.691144 0.004141 0.002003
								CHANNELS 3 Xrotation Yrotation Zrotation
								JOINT RFinger1
								{
									OFFSET -0.267870 -0.074399 0.023430
									CHANNELS 6 Xposition Yposition Zposition Xrotation Yrotation Zrotation
									JOINT RFinger11
									{
										OFFSET -0.100195 -0.017654 -0.024433
										CHANNELS 3 Xrotation Yrotation Zrotation
										JOINT RFinger12
										{
											OFFSET -0.068401 -0.012057 -0.016688
											CHANNELS 3 Xrotation Yrotation Zrotation
											End Site
											{
												OFFSET -0.050801 -0.008241 -0.015164
											}
										}
									}
								}
								JOINT RFinger2
								{
									OFFSET -0.271866 -0.006479 0.027053
									CHANNELS 6 Xposition Yposition Zposition Xrotation Yrotation Zrotation
									JOINT RFinger21
									{
										OFFSET -0.123886 0.000731 0.000347
										CHANNELS 3 Xrotation Yrotation Zrotation
										JOINT RFinger22
										{
											OFFSET -0.068670 0.000420 0.000210
											CHANNELS 3 Xrotation Yrotation Zrotation
											End Site
											{
												OFFSET -0.053519 -0.000073 -0.003781
											}
										}
									}
								}
								JOINT RFinger3
								{
									OFFSET -0.257650 0.060956 0.018056
									CHANNELS 6 Xposition Yposition Zposition Xrotation Yrotation Zrotation
									JOINT RFinger31
									{
										OFFSET -0.112414 0.007039 -0.005693
										CHANNELS 3 Xrotation Yrotation Zrotation
										JOINT RFinger32
										{
											OFFSET -0.064061 0.004024 -0.003223
											CHANNELS 3 Xrotation Yrotation Zrotation
											End Site
											{
												OFFSET -0.053193 0.002514 -0.006540
											}
										}
									}
								}
								JOINT RFinger4
								{
									OFFSET -0.239089 0.105269 -0.018170
									CHANNELS 6 Xposition Yposition Zposition Xrotation Yrotation Zrotation
									JOINT RFinger41
									{
										OFFSET -0.069146 0.019088 -0.014420
										CHANNELS 3 Xrotation Yrotation Zrotation
										JOINT RFinger42
										{
											OFFSET -0.050705 0.014006 -0.010556
											CHANNELS 3 Xrotation Yrotation Zrotation
											End Site
											{
												OFFSET -0.050514 0.011591 -0.013879
											}
										}
									}
								}
								JOINT RFinger0
								{
									OFFSET -0.055412 -0.042006 -0.041939
									CHANNELS 6 Xposition Yposition Zposition Xrotation Yrotation Zrotation
									JOINT RFinger01
									{
										OFFSET -0.103169 -0.077787 -0.033886
										CHANNELS 3 Xrotation Yrotation Zrotation
										JOINT RFinger02
										{
											OFFSET -0.067934 -0.048944 -0.024307
											CHANNELS 3 Xrotation Yrotation Zrotation
											End Site
											{
												OFFSET -0.042584 -0.029159 -0.014660
											}
										}
									}
								}
							}
						}
					}
				}
			}
		}
	}
	JOINT RThigh
	{
		OFFSET -0.307261 0.025206 0.117468
		CHANNELS 6 Xposition Yposition Zposition Xrotation Yrotation Zrotation
		JOINT RShin
		{
			OFFSET -0.022246 0.000000 -1.209169
			CHANNELS 3 Xrotation Yrotation Zrotation
			JOINT RFoot
			{
				OFFSET -0.000000 0.000000 -1.187332
				CHANNELS 3 Xrotation Yrotation Zrotation
				JOINT RToe
				{
					OFFSET -0.000000 -0.272888 -0.130497
					CHANNELS 3 Xrotation Yrotation Zrotation
					End Site
					{
						OFFSET 0.000000 -0.053652 0.000000
					}
				}
			}
		}
	}
	JOINT LThigh
	{
		OFFSET 0.307258 0.025206 0.117477
		CHANNELS 6 Xposition Yposition Zposition Xrotation Yrotation Zrotation
		JOINT LShin
		{
			OFFSET 0.022246 0.000000 -1.209177
			CHANNELS 3 Xrotation Yrotation Zrotation
			JOINT LFoot
			{
				OFFSET -0.000000 0.000001 -1.187331
				CHANNELS 3 Xrotation Yrotation Zrotation
				JOINT LToe
				{
					OFFSET 0.000000 -0.272891 -0.130500
					CHANNELS 3 Xrotation Yrotation Zrotation
					End Site
					{
						OFFSET 0.000000 -0.053652 0.000000
					}
				}
			}
		}
	}
}
MOTION
Frames: 4
Frame Time: 0.041667
0.552137 -0.293645 1.868101 16.479136 9.089839 -12.593030 0.000000 0.154692 0.259874 0.000003 0.000004 0.000001 -2.701948 -1.330568 -0.910867 -8.350185 -3.791360 -6.875125 -0.000000 0.012376 0.661279 -21.475967 -7.819623 -3.810729 -2.166005 -1.088875 -0.053573 0.060085 -0.196776 0.638168 0.223664 1.418662 0.042452 -0.496726 0.537646 16.105620 0.006621 -0.003357 -2.051349 0.000001 0.000193 -0.013714 0.267867 -0.074399 0.023426 0.000006 -0.000008 -0.000002 0.000005 0.000001 -0.000001 0.000001 0.000001 -0.000001 0.271865 -0.006476 0.027053 0.000001 -0.000006 0.000003 -0.000002 0.000001 -0.000000 -0.000001 0.000001 0.000009 0.257650 0.060956 0.018054 0.000002 -0.000008 -0.000008 -0.000001 0.000002 0.000001 0.000001 -0.000008 0.000004 0.239089 0.105269 -0.018170 -0.000003 -0.000006 0.000001 -0.000002 0.000002 -0.000010 -0.000004 -0.000007 -0.000014 0.055411 -0.042009 -0.041942 0.000005 -0.000010 -0.000003 -0.000002 -0.000007 0.000011 0.000006 -0.000001 0.000002 -0.060085 -0.196776 0.638167 -0.324102 -8.229138 -0.761214 -35.923940 -26.420705 -33.283795 0.069036 0.003458 21.830562 -0.000001 0.000003 0.000011 -0.267870 -0.074399 0.023430 0.000001 -0.000010 0.000003 0.000001 0.000003 0.000003 0.000002 -0.000005 0.000007 -0.271866 -0.006479 0.027053 0.000001 -0.000000 -0.000001 -0.000005 0.000002 0.000006 0.000005 -0.000003 -0.000003 -0.257650 0.060956 0.018056 0.000002 -0.000005 -0.000005 -0.000004 0.000005 0.000000 0.000004 0.000002 0.000005 -0.239089 0.105269 -0.018170 0.000001 -0.000004 0.000006 -0.000002 -0.000002 -0.000000 -0.000002 0.000003 -0.000005 -0.055412 -0.042006 -0.041938 -0.000007 0.000003 -0.000009 -0.000003 -0.000012 0.000014 -0.000008 -0.000005 0.000009 -0.339271 0.074407 0.242016 -2.940210 13.093055 0.338804 41.491582 -0.000015 -0.000003 1.536672 -1.274594 2.760849 -45.285408 -0.000006 -0.000036 0.347303 -0.011532 0.079848 -79.199909 -35.886862 23.752473 73.148116 0.000005 0.000008 -1.954879 -1.354485 2.700048 -0.430486 0.000003 -0.000018 
0.585945 -0.386008 1.896307 17.138739 10.242932 -8.916704 0.000000 0.154692 0.259874 0.000002 0.000007 -0.000002 -2.802218 -1.298397 -0.678179 -9.557100 -3.342011 -4.821523 -0.000000 0.012376 0.661279 -21.225458 -7.602804 -3.684468 -2.282082 -1.031384 -0.050705 0.060085 -0.196776 0.638167 0.241987 1.776362 0.045182 0.014129 2.549728 19.932842 0.005785 -0.001319 -1.742088 0.000001 0.000191 -0.013713 0.267867 -0.074399 0.023427 0.000001 -0.000004 -0.000002 0.000004 0.000001 -0.000002 0.000001 -0.000001 -0.000003 0.271865 -0.006476 0.027053 0.000001 -0.000003 0.000002 -0.000001 0.000000 0.000001 -0.000001 0.000003 0.000009 0.257650 0.060956 0.018054 0.000001 -0.000006 -0.000008 -0.000002 0.000004 0.000000 0.000000 -0.000009 0.000003 0.239089 0.105269 -0.018170 -0.000005 -0.000005 -0.000001 -0.000001 -0.000001 -0.000012 -0.000005 -0.000005 -0.000012 0.055412 -0.042009 -0.041942 0.000003 -0.000009 0.000001 -0.000000 -0.000005 0.000007 -0.000003 -0.000001 0.000004 -0.060085 -0.196776 0.638167 -0.356055 -7.899332 -0.840896 -36.220920 -25.477500 -33.773404 0.076783 0.005120 24.107631 -0.000007 0.000001 0.000005 -0.267870 -0.074399 0.023430 0.000005 -0.000012 0.000004 0.000003 0.000009 0.000008 -0.000001 -0.000007 0.000006 -0.271866 -0.006479 0.027053 -0.000002 -0.000002 -0.000002 -0.000002 0.000002 0.000008 0.000002 -0.000004 -0.000001 -0.257650 0.060956 0.018056 0.000002 -0.000005 -0.000002 0.000001 0.000006 -0.000001 0.000001 0.000003 0.000004 -0.239089 0.105269 -0.018170 -0.000001 -0.000003 0.000009 -0.000004 -0.000002 0.000001 0.000004 -0.000004 -0.000007 -0.055412 -0.042005 -0.041939 -0.000008 0.000004 -0.000007 -0.000005 -0.000010 0.000013 -0.000004 -0.000004 0.000007 -0.338998 0.074245 0.241486 -3.354028 12.284953 -1.439118 41.075627 -0.000012 -0.000005 0.911044 -1.227158 2.624087 -44.344870 -0.000008 -0.000032 0.346847 -0.010434 0.082117 -77.698647 -33.175807 24.904570 73.677449 0.000006 0.000012 -4.592600 -1.369728 2.589175 -0.938744 0.000003 -0.000020 
0.622636 -0.468050 1.930507 17.881394 11.704563 -4.866611 0.000000 0.154692 0.259874 0.000003 0.000005 -0.000001 -2.896984 -1.263952 -0.445934 -10.577717 -3.100288 -2.882976 -0.000000 0.012376 0.661279 -20.909098 -7.281640 -3.504011 -2.391459 -1.011697 -0.050182 0.060085 -0.196776 0.638168 0.262391 2.121345 0.048227 0.513791 5.447941 23.126659 0.004611 0.001417 -1.313575 0.000001 0.000192 -0.013715 0.267867 -0.074399 0.023427 0.000003 -0.000007 0.000000 0.000005 0.000003 -0.000001 0.000003 0.000001 -0.000003 0.271865 -0.006476 0.027053 0.000001 -0.000005 0.000003 -0.000002 0.000001 -0.000002 -0.000000 0.000000 0.000007 0.257650 0.060956 0.018054 0.000002 -0.000005 -0.000004 0.000000 0.000004 0.000002 0.000001 -0.000003 0.000002 0.239089 0.105269 -0.018170 -0.000006 -0.000009 -0.000001 -0.000000 0.000004 -0.000004 -0.000005 -0.000005 -0.000013 0.055412 -0.042009 -0.041941 0.000003 -0.000009 0.000001 -0.000003 -0.000005 0.000010 -0.000000 -0.000006 0.000003 -0.060085 -0.196776 0.638168 -0.386548 -7.518401 -0.918772 -36.393324 -24.304549 -33.885340 0.082869 0.007410 26.480947 -0.000000 0.000002 0.000008 -0.267870 -0.074399 0.023430 0.000004 -0.000013 0.000004 0.000002 0.000007 0.000006 0.000001 -0.000005 0.000008 -0.271866 -0.006479 0.027053 0.000005 -0.000001 -0.000001 0.000003 0.000002 0.000007 -0.000000 -0.000003 -0.000004 -0.257650 0.060956 0.018056 0.000001 -0.000006 -0.000004 0.000001 0.000005 -0.000001 -0.000004 -0.000002 0.000004 -0.239089 0.105269 -0.018170 -0.000001 -0.000006 0.000010 0.000003 0.000000 0.000004 0.000001 -0.000001 -0.000008 -0.055412 -0.042006 -0.041938 -0.000005 0.000003 -0.000008 -0.000008 -0.000014 0.000015 -0.000003 -0.000002 0.000011 -0.338708 0.074074 0.240921 -5.603178 11.416774 -4.678873 42.420273 -0.000017 0.000001 0.674948 -1.040281 2.204710 -43.214603 -0.000001 -0.000035 0.345482 -0.007239 0.088708 -76.221844 -29.827559 25.502489 73.012509 0.000006 0.000004 -6.487905 -1.514775 2.762228 -1.700390 0.000000 -0.000018 
0.653206 -0.539655 1.966246 18.327327 13.407102 -0.172359 0.000000 0.154692 0.259874 0.000001 0.000005 -0.000002 -2.985201 -1.230085 -0.215876 -11.148340 -3.100869 -1.671264 0.000000 0.012376 0.661279 -20.478529 -6.793381 -3.237509 -2.487239 -1.061886 -0.054805 0.060085 -0.196776 0.638168 0.282818 2.471076 0.051140 0.929126 9.202672 25.897709 0.004170 0.002560 -1.149294 0.000002 0.000191 -0.013715 0.267867 -0.074399 0.023427 0.000003 -0.000007 -0.000002 0.000004 0.000003 -0.000003 0.000004 -0.000002 -0.000004 0.271865 -0.006476 0.027053 0.000002 -0.000005 0.000001 -0.000001 0.000001 -0.000003 -0.000001 -0.000002 0.000008 0.257650 0.060956 0.018054 0.000002 -0.000008 -0.000009 -0.000001 0.000004 0.000000 0.000000 -0.000008 0.000003 0.239089 0.105269 -0.018170 -0.000004 -0.000007 -0.000004 0.000001 0.000002 -0.000012 -0.000001 -0.000004 -0.000012 0.055412 -0.042008 -0.041942 0.000002 -0.000009 0.000001 -0.000001 -0.000007 0.000006 0.000005 -0.000002 0.000006 -0.060085 -0.196776 0.638167 -0.415580 -7.097309 -0.994751 -36.442068 -23.004233 -33.144480 0.087962 0.010126 28.879515 0.000001 0.000003 0.000008 -0.267870 -0.074398 0.023430 -0.000001 -0.000011 0.000004 -0.000000 0.000007 0.000005 0.000003 -0.000003 0.000009 -0.271866 -0.006479 0.027053 0.000000 -0.000002 -0.000004 0.000005 0.000001 0.000006 0.000002 -0.000004 -0.000001 -0.257650 0.060956 0.018057 -0.000005 -0.000011 -0.000004 0.000006 0.000003 -0.000001 0.000001 0.000004 0.000005 -0.239089 0.105269 -0.018170 -0.000005 -0.000006 0.000008 -0.000000 -0.000004 -0.000000 0.000004 -0.000003 -0.000009 -0.055412 -0.042005 -0.041938 -0.000009 0.000001 -0.000011 -0.000006 -0.000009 0.000011 -0.000007 -0.000004 0.000009 -0.338402 0.073890 0.240324 -9.220101 10.355522 -7.982545 45.387341 -0.000017 -0.000003 0.620604 -0.841285 1.779202 -42.417889 -0.000005 -0.000032 0.343423 -0.002647 0.098179 -74.846825 -25.716803 25.063304 71.522975 0.000009 0.000005 -7.858049 -1.735746 3.067128 -2.063898 0.000004 -0.000017 
